<?xml version="1.0" encoding="UTF-8" standalone="no"?>
<!-- Created with Inkscape (http://www.inkscape.org/) -->

<svg
   width="126.86534mm"
   height="94.768478mm"
   viewBox="0 0 126.86534 94.768478"
   version="1.1"
   id="svg1"
   xml:space="preserve"
   xmlns="http://www.w3.org/2000/svg"
   xmlns:svg="http://www.w3.org/2000/svg"><defs
     id="defs1" /><g
     id="layer1"
     transform="translate(-40.206034,-100.21071)"><path
       style="fill:#4d4d4d;stroke-width:0.871643"
       d="m 101.16577,187.76669 c -3.260427,-0.94127 -5.507405,-3.62649 -5.860355,-7.00333 -0.366608,-3.50752 1.866271,-7.01377 5.266595,-8.27005 0.54524,-0.20145 1.76971,-0.37684 2.72103,-0.38977 1.43396,-0.0195 1.96623,0.0857 3.11339,0.61487 6.53983,3.01705 6.39983,11.99362 -0.23061,14.78661 -1.24647,0.52505 -3.66093,0.65116 -5.01005,0.26167 z M 82.987198,164.7419 c -1.106214,-0.74548 -1.69356,-1.87151 -1.673396,-3.20816 0.01962,-1.30036 0.313955,-1.81261 1.909568,-3.32335 4.788947,-4.53417 10.702729,-7.10165 17.8037,-7.7295 4.80711,-0.42503 9.24213,0.28949 13.90042,2.23949 3.83676,1.6061 9.12795,5.44122 10.07895,7.30536 1.48208,2.90509 -1.49235,6.16092 -4.56215,4.99378 -0.35018,-0.13314 -1.26501,-0.7913 -2.03296,-1.46258 -3.02834,-2.64715 -5.43622,-3.97706 -9.2604,-5.1147 -1.82348,-0.54245 -2.45169,-0.61189 -5.62727,-0.62205 -2.94213,-0.009 -3.888783,0.0744 -5.349993,0.47378 -3.99584,1.09205 -7.10017,2.71772 -9.719682,5.08996 -0.706969,0.64024 -1.595883,1.32463 -1.975365,1.52086 -1.022296,0.52865 -2.572575,0.45632 -3.491422,-0.16289 z M 68.000905,149.52162 c -2.030845,-1.02595 -2.65936,-3.1604 -1.508756,-5.12376 0.91998,-1.56982 6.31265,-5.99057 10.063731,-8.24993 16.666917,-10.03887 37.08288,-9.95323 53.83526,0.22581 3.40065,2.06629 8.91018,6.57443 9.80576,8.02351 0.60492,0.97877 0.60768,2.74105 0.006,3.7281 -0.83371,1.36731 -2.497,2.07061 -3.96325,1.67579 -0.56914,-0.15325 -1.83598,-1.06847 -3.70268,-2.67496 -3.52298,-3.0319 -6.12783,-4.77212 -9.98682,-6.67188 -8.76121,-4.3131 -18.50616,-5.5328 -28.333637,-3.54632 -3.446671,0.6967 -6.749703,1.87769 -10.641516,3.80484 -3.845071,1.90401 -6.812696,3.92066 -9.782678,6.64782 -1.940139,1.78152 -3.358019,2.66473 -4.29407,2.67481 -0.258519,0.003 -0.932251,-0.22844 -1.497183,-0.51383 z M 52.607488,134.20578 c -1.586719,-0.78208 -2.354114,-2.36964 -2.016179,-4.17098 0.36032,-1.92067 8.093844,-8.4646 14.792578,-12.51715 7.117252,-4.30572 15.821401,-7.68588 23.698458,-9.20301 5.172879,-0.9963 7.91326,-1.23805 14.210695,-1.25359 6.50127,-0.016 9.1459,0.22612 14.87513,1.36209 12.8772,2.55328 26.32367,9.63366 35.67478,18.78495 2.16256,2.11635 2.48234,2.79297 2.15206,4.55352 -0.22961,1.22393 -1.6392,2.51946 -2.95611,2.71695 -1.37305,0.2059 -2.29792,-0.22616 -4.22301,-1.9728 -5.50637,-4.99597 -10.36564,-8.3561 -16.48489,-11.39912 -15.72615,-7.82039 -33.96626,-8.93814 -50.831765,-3.11495 -8.295755,2.86429 -16.777453,7.98578 -23.177538,13.99524 -1.078159,1.01236 -2.29242,2.01193 -2.698359,2.22127 -0.928588,0.47888 -2.041188,0.47798 -3.01585,-0.003 z"
       id="path4" /><path
       d="m 137.82402,189.49134 c -0.3563,-0.0665 -2.22011,-1.7378 -4.89736,-4.39157 -4.60611,-4.5657 -5.22827,-5.45084 -4.93229,-7.01711 0.33066,-1.74985 1.95202,-3.18101 3.60377,-3.18101 1.17539,0 2.06138,0.61241 4.78442,3.30713 l 2.59577,2.56875 8.12816,-8.1046 c 4.47048,-4.45754 8.46029,-8.27033 8.86623,-8.47288 0.98709,-0.49252 1.97512,-0.46417 3.05696,0.0877 1.74783,0.89168 2.54673,3.00014 1.76274,4.65227 -0.20832,0.43899 -4.76688,5.16664 -10.23135,10.61084 -10.81135,10.77125 -10.32374,10.39071 -12.73705,9.94043 z"
       style="fill:#00d078;fill-opacity:1;stroke-width:0.871643"
       id="path1" /></g></svg>
